<svg xmlns="http://www.w3.org/2000/svg" viewBox="0 0 256 256"><defs><style>.cls-1{fill:#1d384d;}</style></defs><title>dollar</title><g id="icons_without_caption" data-name="icons without caption"><g id="DOLLAR"><path class="cls-1" d="M204.21,82.47V67H186.65V51.56H8.69v91H26.25V158H43.81v15.46H178.19a34.52,34.52,0,0,1-.2-3.69v-.31H68.9a23.18,23.18,0,0,0-18.67-21.13,21.33,21.33,0,0,0-2.42-.34V107.54A23.17,23.17,0,0,0,68.87,86.47H196.76a9.24,9.24,0,0,0,.1.92,22.35,22.35,0,0,0,1,4.35,22.79,22.79,0,0,0,2.37,5,23.1,23.1,0,0,0,17.56,10.78v28a33,33,0,0,1,4,.84V82.47ZM182.7,55.56V67H171.09a19.13,19.13,0,0,1-5.44-11.46Zm-170,0h17a19.18,19.18,0,0,1-17,17Zm13.56,82.57H12.69V121.08A19.17,19.17,0,0,1,26.25,129Zm0-15.13a23.07,23.07,0,0,0-13.56-5.93V76.62a23.07,23.07,0,0,0,13.56-5.93Zm7.5-67.44H161.64A22.83,22.83,0,0,0,165.89,67H29.51A22.91,22.91,0,0,0,33.75,55.56ZM47.3,71a19.18,19.18,0,0,1-17,17V71Zm-3.49,82.57H30.25v-17a19.23,19.23,0,0,1,12,6,17.91,17.91,0,0,1,1.56,1.9Zm0-15.13a23.13,23.13,0,0,0-11.14-5.59,21.35,21.35,0,0,0-2.42-.34V92.08a23.07,23.07,0,0,0,13.56-5.93Zm7.4,14.21A19.24,19.24,0,0,1,64.86,169h-17V152A19.11,19.11,0,0,1,51.21,152.67Zm-3.4-49.15v-17h17A19.18,19.18,0,0,1,47.81,103.52Zm-.74-21.05A22.78,22.78,0,0,0,51.31,71H179.2a9,9,0,0,0,.1.91,21.79,21.79,0,0,0,1,4.35,22.77,22.77,0,0,0,2.37,5c.24.4.51.8.79,1.18Zm153.19,0H188.64a18.91,18.91,0,0,1-2-2.37,18.52,18.52,0,0,1-1.92-3.39A18.78,18.78,0,0,1,183.21,71h17Zm17.56,21.05h-.05a19.13,19.13,0,0,1-13.56-8,19.28,19.28,0,0,1-3.44-9.09h17Z"/><path class="cls-1" d="M132.79,155.26A27.29,27.29,0,1,1,160.08,128,27.32,27.32,0,0,1,132.79,155.26Zm0-50.58A23.29,23.29,0,1,0,156.08,128,23.32,23.32,0,0,0,132.79,104.68Z"/><path class="cls-1" d="M212.65,204.44a34.67,34.67,0,1,1,34.67-34.67A34.71,34.71,0,0,1,212.65,204.44Zm0-65.33a30.67,30.67,0,1,0,30.67,30.67A30.7,30.7,0,0,0,212.65,139.11Z"/><path class="cls-1" d="M142,134.67c0,4.06-2.86,6.92-7.7,7.31v4.82h-2.66v-4.86a13.88,13.88,0,0,1-8.15-3.91l2.08-2.49a11.31,11.31,0,0,0,7.68,3.3c2.94,0,5.11-1.46,5.11-4,0-2.86-2.29-3.81-6-5-4.35-1.4-8.32-2.76-8.32-7.5,0-3.87,2.7-6.8,7.56-7v-5h2.66v5.21a16.29,16.29,0,0,1,6.78,2.9l-2,2.47a12.36,12.36,0,0,0-6.71-2.35c-2.78,0-4.72,1.3-4.72,3.64,0,2.49,2.41,3.4,5.73,4.49,4.9,1.56,8.61,2.86,8.61,8Z"/><path class="cls-1" d="M223.89,177.18c0,4.94-3.47,8.41-9.36,8.88v5.86H211.3V186a16.87,16.87,0,0,1-9.9-4.75l2.53-3a13.74,13.74,0,0,0,9.33,4c3.57,0,6.21-1.77,6.21-4.82,0-3.47-2.79-4.63-7.25-6-5.29-1.7-10.11-3.35-10.11-9.12,0-4.7,3.28-8.27,9.19-8.55v-6.12h3.24V154a19.79,19.79,0,0,1,8.24,3.52l-2.43,3a15,15,0,0,0-8.15-2.86c-3.38,0-5.74,1.58-5.74,4.42,0,3,2.93,4.13,7,5.46,6,1.89,10.47,3.47,10.47,9.69Z"/></g></g></svg>